<?xml version="1.0" encoding="utf-8"?>
<!-- Generator: Adobe Illustrator 25.2.3, SVG Export Plug-In . SVG Version: 6.00 Build 0)  -->
<svg version="1.1" id="Layer_1" xmlns="http://www.w3.org/2000/svg" xmlns:xlink="http://www.w3.org/1999/xlink" x="0px" y="0px"
	 viewBox="0 0 792.51 340.43" style="enable-background:new 0 0 792.51 340.43;" xml:space="preserve">
<style type="text/css">
	.st0{display:none;fill:#FFFFFF;}
	.st1{fill:none;}
	.st2{display:none;}
	.st3{display:inline;}
	.st4{font-family:'Consolas';}
	.st5{font-size:18px;}
	.st6{display:inline;fill:#7B91A8;}
	.st7{display:inline;fill:#E50002;}
	.st8{letter-spacing:26;}
	.st9{letter-spacing:22;}
	.st10{display:inline;fill:#3A00E3;}
	.st11{fill:#7B91A8;}
	.st12{fill:#E50002;}
	.st13{letter-spacing:16;}
	.st14{fill:#C882D3;}
</style>
<rect x="33.26" y="267.32" class="st0" width="508.13" height="258.89"/>
<rect x="28.08" y="33.55" class="st1" width="736.35" height="451.87"/>
<text transform="matrix(1 0 0 1 28.0782 45.9729)" class="st2"><tspan x="0" y="0" class="st3 st4 st5">matriz_2 </tspan><tspan x="89.07" y="0" class="st6 st4 st5">&lt;-</tspan><tspan x="108.86" y="0" class="st3 st4 st5"> rgamer</tspan><tspan x="178.14" y="0" class="st6 st4 st5">::</tspan><tspan x="197.93" y="0" class="st3 st4 st5">normal_form</tspan><tspan x="306.79" y="0" class="st6 st4 st5">(</tspan><tspan x="0" y="21.6" class="st3 st4 st5">              players </tspan><tspan x="217.72" y="21.6" class="st6 st4 st5">=</tspan><tspan x="227.62" y="21.6" class="st3 st4 st5"> c</tspan><tspan x="247.41" y="21.6" class="st6 st4 st5">(</tspan><tspan x="257.31" y="21.6" class="st7 st4 st5">&quot;Empresa A&quot;</tspan><tspan x="366.17" y="21.6" class="st3 st4 st5">, </tspan><tspan x="0" y="43.2" class="st7 st4 st5 st8">						</tspan><tspan x="216" y="43.2" class="st7 st4 st5">    &quot;Empresa B&quot;</tspan><tspan x="364.45" y="43.2" class="st6 st4 st5">)</tspan><tspan x="374.34" y="43.2" class="st3 st4 st5">,</tspan><tspan x="0" y="64.8" class="st3 st4 st5">              s1 </tspan><tspan x="168.24" y="64.8" class="st6 st4 st5">= </tspan><tspan x="188.03" y="64.8" class="st3 st4 st5">c</tspan><tspan x="197.93" y="64.8" class="st6 st4 st5">(</tspan><tspan x="207.83" y="64.8" class="st7 st4 st5">&quot;Não Entrar&quot;</tspan><tspan x="326.58" y="64.8" class="st3 st4 st5">, </tspan><tspan x="0" y="86.4" class="st7 st4 st5 st8">					</tspan><tspan x="180" y="86.4" class="st7 st4 st5">   &quot;Preço Alto&quot;</tspan><tspan x="328.45" y="86.4" class="st3 st4 st5">, </tspan><tspan x="0" y="108" class="st3 st4 st5">                     </tspan><tspan x="207.83" y="108" class="st7 st4 st5">&quot;Preço Baixo&quot;</tspan><tspan x="336.48" y="108" class="st3 st4 st5">, </tspan><tspan x="0" y="129.6" class="st7 st4 st5 st8">					</tspan><tspan x="180" y="129.6" class="st7 st4 st5">   &quot;Inovação&quot;</tspan><tspan x="308.65" y="129.6" class="st6 st4 st5">)</tspan><tspan x="318.55" y="129.6" class="st3 st4 st5">,</tspan><tspan x="0" y="151.2" class="st3 st4 st5">              s2 </tspan><tspan x="168.24" y="151.2" class="st6 st4 st5">=</tspan><tspan x="178.14" y="151.2" class="st3 st4 st5"> c</tspan><tspan x="197.93" y="151.2" class="st6 st4 st5">(</tspan><tspan x="207.83" y="151.2" class="st7 st4 st5">&quot;Não Entrar&quot;</tspan><tspan x="326.58" y="151.2" class="st3 st4 st5">, </tspan><tspan x="0" y="172.8" class="st7 st4 st5 st8">					</tspan><tspan x="180" y="172.8" class="st7 st4 st5">   &quot;Preço Alto&quot;</tspan><tspan x="328.45" y="172.8" class="st3 st4 st5">, </tspan><tspan x="0" y="194.4" class="st3 st4 st5">                     </tspan><tspan x="207.83" y="194.4" class="st7 st4 st5">&quot;Preço Baixo&quot;</tspan><tspan x="336.48" y="194.4" class="st3 st4 st5">, </tspan><tspan x="0" y="216" class="st7 st4 st5">    </tspan><tspan x="39.59" y="216" class="st7 st4 st5 st9">	</tspan><tspan x="72" y="216" class="st7 st4 st5 st8">			</tspan><tspan x="180" y="216" class="st7 st4 st5">   &quot;Inovação&quot;</tspan><tspan x="308.65" y="216" class="st6 st4 st5">)</tspan><tspan x="318.55" y="216" class="st3 st4 st5">,</tspan><tspan x="0" y="237.6" class="st3 st4 st5">              payoffs1 </tspan><tspan x="227.62" y="237.6" class="st6 st4 st5">=</tspan><tspan x="237.52" y="237.6" class="st3 st4 st5"> c</tspan><tspan x="257.31" y="237.6" class="st6 st4 st5">(</tspan><tspan x="267.21" y="237.6" class="st10 st4 st5">0</tspan><tspan x="277.1" y="237.6" class="st3 st4 st5">, </tspan><tspan x="296.9" y="237.6" class="st10 st4 st5">10</tspan><tspan x="316.69" y="237.6" class="st3 st4 st5">, </tspan><tspan x="336.48" y="237.6" class="st10 st4 st5">8</tspan><tspan x="346.38" y="237.6" class="st3 st4 st5">, </tspan><tspan x="366.17" y="237.6" class="st10 st4 st5">6</tspan><tspan x="376.07" y="237.6" class="st3 st4 st5">,   </tspan><tspan x="0" y="259.2" class="st3 st4 st5">                           </tspan><tspan x="267.21" y="259.2" class="st10 st4 st5">7</tspan><tspan x="277.1" y="259.2" class="st3 st4 st5">, </tspan><tspan x="296.9" y="259.2" class="st10 st4 st5">4</tspan><tspan x="306.79" y="259.2" class="st3 st4 st5">, </tspan><tspan x="326.58" y="259.2" class="st10 st4 st5">5</tspan><tspan x="336.48" y="259.2" class="st3 st4 st5">, </tspan><tspan x="356.27" y="259.2" class="st10 st4 st5">3</tspan><tspan x="366.17" y="259.2" class="st3 st4 st5">,</tspan><tspan x="0" y="280.8" class="st3 st4 st5">                           </tspan><tspan x="267.21" y="280.8" class="st10 st4 st5">9</tspan><tspan x="277.1" y="280.8" class="st3 st4 st5">, </tspan><tspan x="296.9" y="280.8" class="st10 st4 st5">6</tspan><tspan x="306.79" y="280.8" class="st3 st4 st5">, </tspan><tspan x="326.58" y="280.8" class="st10 st4 st5">3</tspan><tspan x="336.48" y="280.8" class="st3 st4 st5">, </tspan><tspan x="356.27" y="280.8" class="st10 st4 st5">4</tspan><tspan x="366.17" y="280.8" class="st3 st4 st5">,</tspan><tspan x="0" y="302.4" class="st3 st4 st5">                           </tspan><tspan x="267.21" y="302.4" class="st10 st4 st5">6</tspan><tspan x="277.1" y="302.4" class="st3 st4 st5">, </tspan><tspan x="296.9" y="302.4" class="st10 st4 st5">7</tspan><tspan x="306.79" y="302.4" class="st3 st4 st5">, </tspan><tspan x="326.58" y="302.4" class="st10 st4 st5">4</tspan><tspan x="336.48" y="302.4" class="st3 st4 st5">, </tspan><tspan x="356.27" y="302.4" class="st10 st4 st5">5</tspan><tspan x="366.17" y="302.4" class="st6 st4 st5">)</tspan><tspan x="376.07" y="302.4" class="st3 st4 st5">,</tspan><tspan x="0" y="324" class="st3 st4 st5">              payoffs2 </tspan><tspan x="227.62" y="324" class="st6 st4 st5">=</tspan><tspan x="237.52" y="324" class="st3 st4 st5"> c</tspan><tspan x="257.31" y="324" class="st6 st4 st5">(</tspan><tspan x="267.21" y="324" class="st10 st4 st5">0</tspan><tspan x="277.1" y="324" class="st3 st4 st5">, </tspan><tspan x="296.9" y="324" class="st10 st4 st5">7</tspan><tspan x="306.79" y="324" class="st3 st4 st5">, </tspan><tspan x="326.58" y="324" class="st10 st4 st5">9</tspan><tspan x="336.48" y="324" class="st3 st4 st5">, </tspan><tspan x="356.27" y="324" class="st10 st4 st5">6</tspan><tspan x="366.17" y="324" class="st3 st4 st5">,    </tspan><tspan x="0" y="345.6" class="st3 st4 st5">                           </tspan><tspan x="267.21" y="345.6" class="st10 st4 st5">10</tspan><tspan x="287" y="345.6" class="st3 st4 st5">, </tspan><tspan x="306.79" y="345.6" class="st10 st4 st5">4</tspan><tspan x="316.69" y="345.6" class="st3 st4 st5">, </tspan><tspan x="336.48" y="345.6" class="st10 st4 st5">6</tspan><tspan x="346.38" y="345.6" class="st3 st4 st5">, </tspan><tspan x="366.17" y="345.6" class="st10 st4 st5">7</tspan><tspan x="376.07" y="345.6" class="st3 st4 st5">,</tspan><tspan x="0" y="367.2" class="st3 st4 st5">                           </tspan><tspan x="267.21" y="367.2" class="st10 st4 st5">8</tspan><tspan x="277.1" y="367.2" class="st3 st4 st5">, </tspan><tspan x="296.9" y="367.2" class="st10 st4 st5">5</tspan><tspan x="306.79" y="367.2" class="st3 st4 st5">, </tspan><tspan x="326.58" y="367.2" class="st10 st4 st5">3</tspan><tspan x="336.48" y="367.2" class="st3 st4 st5">, </tspan><tspan x="356.27" y="367.2" class="st10 st4 st5">4</tspan><tspan x="366.17" y="367.2" class="st3 st4 st5">,</tspan><tspan x="0" y="388.8" class="st3 st4 st5">                           </tspan><tspan x="267.21" y="388.8" class="st10 st4 st5">6</tspan><tspan x="277.1" y="388.8" class="st3 st4 st5">, </tspan><tspan x="296.9" y="388.8" class="st10 st4 st5">3</tspan><tspan x="306.79" y="388.8" class="st3 st4 st5">, </tspan><tspan x="326.58" y="388.8" class="st10 st4 st5">4</tspan><tspan x="336.48" y="388.8" class="st3 st4 st5">, </tspan><tspan x="356.27" y="388.8" class="st10 st4 st5">5</tspan><tspan x="366.17" y="388.8" class="st6 st4 st5">)</tspan><tspan x="0" y="410.4" class="st3 st4 st5">            </tspan><tspan x="118.76" y="410.4" class="st6 st4 st5">)</tspan></text>
<rect y="-245.79" class="st0" width="792.51" height="524.34"/>
<rect x="6.13" y="-226.98" class="st1" width="780.26" height="617.87"/>
<text transform="matrix(1 0 0 1 6.1275 -214.5588)" class="st2"><tspan x="0" y="0" class="st3 st4 st5">dados_1 &lt;- dplyr::bind_rows(</tspan><tspan x="0" y="21.6" class="st3 st4 st5">            simulacao_1 |&gt;</tspan><tspan x="0" y="43.2" class="st3 st4 st5">              data_extraction(probability = &quot;p1&quot;,</tspan><tspan x="0" y="64.8" class="st3 st4 st5">                              attraction = &quot;a1&quot;,</tspan><tspan x="0" y="86.4" class="st3 st4 st5">                              n_strategy = length(matriz_1$strategy$s1)) |&gt;</tspan><tspan x="0" y="108" class="st3 st4 st5">              player_render(sim = simulacao_1,</tspan><tspan x="0" y="129.6" class="st3 st4 st5">                            n_player = 1,</tspan><tspan x="0" y="151.2" class="st3 st4 st5">                            n_replicate = length(matriz_1$strategy$s1)) |&gt;</tspan><tspan x="0" y="172.8" class="st3 st4 st5">              remove_cols(),</tspan><tspan x="0" y="194.4" class="st3 st4 st5">            simulacao_1 |&gt;</tspan><tspan x="0" y="216" class="st3 st4 st5">              data_extraction(probability = &quot;p2&quot;,</tspan><tspan x="0" y="237.6" class="st3 st4 st5">                              attraction = &quot;a2&quot;,</tspan><tspan x="0" y="259.2" class="st3 st4 st5">                              n_strategy = length(matriz_1$strategy$s2)) |&gt;</tspan><tspan x="0" y="280.8" class="st3 st4 st5">              player_render(sim = simulacao_1,</tspan><tspan x="0" y="302.4" class="st3 st4 st5">                            n_player = 2,</tspan><tspan x="0" y="324" class="st3 st4 st5">                            n_replicate = length(matriz_1$strategy$s2)) |&gt;</tspan><tspan x="0" y="345.6" class="st3 st4 st5">              remove_cols()</tspan><tspan x="0" y="367.2" class="st3 st4 st5">            ) |&gt;</tspan><tspan x="0" y="388.8" class="st3 st4 st5">            dplyr::rename(</tspan><tspan x="0" y="410.4" class="st3 st4 st5">              amostra = 1, periodo = 2, jogador = 3, estrategia_escolhida = 4</tspan><tspan x="0" y="432" class="st3 st4 st5">            )  |&gt;</tspan><tspan x="0" y="453.6" class="st3 st4 st5">            dplyr::arrange(amostra, periodo)</tspan></text>
<rect x="28.08" y="32.56" class="st1" width="736.35" height="275.31"/>
<text transform="matrix(1 0 0 1 28.0782 44.9783)"><tspan x="0" y="0" class="st4 st5">matriz_bsg </tspan><tspan x="108.86" y="0" class="st11 st4 st5">&lt;-</tspan><tspan x="128.65" y="0" class="st4 st5"> rgamer</tspan><tspan x="197.93" y="0" class="st11 st4 st5">::</tspan><tspan x="217.72" y="0" class="st4 st5">normal_form</tspan><tspan x="326.58" y="0" class="st11 st4 st5">(</tspan><tspan x="0" y="21.6" class="st4 st5">               players </tspan><tspan x="227.62" y="21.6" class="st11 st4 st5">=</tspan><tspan x="237.52" y="21.6" class="st4 st5"> c</tspan><tspan x="257.31" y="21.6" class="st11 st4 st5">(</tspan><tspan x="267.21" y="21.6" class="st12 st4 st5">&quot;Vendedor&quot;</tspan><tspan x="366.17" y="21.6" class="st4 st5">, </tspan><tspan x="0" y="43.2" class="st12 st4 st5 st8">				</tspan><tspan x="144" y="43.2" class="st12 st4 st5"> </tspan><tspan x="153.9" y="43.2" class="st12 st4 st5 st13">	</tspan><tspan x="180" y="43.2" class="st12 st4 st5 st8">		</tspan><tspan x="252" y="43.2" class="st12 st4 st5"> &quot;Comprador&quot;</tspan><tspan x="370.76" y="43.2" class="st11 st4 st5">)</tspan><tspan x="380.65" y="43.2" class="st4 st5">,</tspan><tspan x="0" y="64.8" class="st4 st5">               pars </tspan><tspan x="197.93" y="64.8" class="st11 st4 st5">=</tspan><tspan x="207.83" y="64.8" class="st4 st5"> c</tspan><tspan x="227.62" y="64.8" class="st11 st4 st5">(</tspan><tspan x="237.52" y="64.8" class="st12 st4 st5">&quot;preco_vendedor&quot;</tspan><tspan x="395.86" y="64.8" class="st4 st5">, </tspan><tspan x="0" y="86.4" class="st4 st5">                        </tspan><tspan x="237.52" y="86.4" class="st12 st4 st5">&quot;estrategia_comprador&quot;</tspan><tspan x="455.24" y="86.4" class="st11 st4 st5">)</tspan><tspan x="465.14" y="86.4" class="st4 st5">,</tspan><tspan x="0" y="108" class="st4 st5">               s1 </tspan><tspan x="178.14" y="108" class="st11 st4 st5">=</tspan><tspan x="188.03" y="108" class="st4 st5"> c</tspan><tspan x="207.83" y="108" class="st11 st4 st5">(</tspan><tspan x="217.72" y="108" class="st12 st4 st5">&quot;Preço Alto&quot;</tspan><tspan x="336.48" y="108" class="st4 st5">, </tspan><tspan x="0" y="129.6" class="st12 st4 st5 st8">					</tspan><tspan x="180" y="129.6" class="st12 st4 st5">    &quot;Preço Baixo&quot;</tspan><tspan x="348.24" y="129.6" class="st11 st4 st5">)</tspan><tspan x="358.14" y="129.6" class="st4 st5">,  </tspan><tspan x="0" y="151.2" class="st4 st5">               s2 </tspan><tspan x="178.14" y="151.2" class="st11 st4 st5">=</tspan><tspan x="188.03" y="151.2" class="st4 st5"> c</tspan><tspan x="207.83" y="151.2" class="st11 st4 st5">(</tspan><tspan x="217.72" y="151.2" class="st12 st4 st5">&quot;Aceitar&quot;</tspan><tspan x="306.79" y="151.2" class="st4 st5">, </tspan><tspan x="0" y="172.8" class="st12 st4 st5 st8">					</tspan><tspan x="180" y="172.8" class="st12 st4 st5">    &quot;Rejeitar&quot;</tspan><tspan x="318.55" y="172.8" class="st11 st4 st5">)</tspan><tspan x="328.45" y="172.8" class="st4 st5">, </tspan><tspan x="0" y="194.4" class="st4 st5">               payoffs1 </tspan><tspan x="237.52" y="194.4" class="st11 st4 st5">=</tspan><tspan x="247.41" y="194.4" class="st4 st5"> pay1_avg,</tspan><tspan x="0" y="216" class="st4 st5">               payoffs2 </tspan><tspan x="237.52" y="216" class="st11 st4 st5">=</tspan><tspan x="247.41" y="216" class="st4 st5"> pay2_avg,</tspan><tspan x="0" y="237.6" class="st4 st5">               discretize </tspan><tspan x="257.31" y="237.6" class="st11 st4 st5">=</tspan><tspan x="267.21" y="237.6" class="st4 st5"> </tspan><tspan x="277.1" y="237.6" class="st14 st4 st5">TRUE</tspan><tspan x="0" y="259.2" class="st4 st5">              </tspan><tspan x="138.55" y="259.2" class="st11 st4 st5">)</tspan></text>
</svg>
